<svg xmlns="http://www.w3.org/2000/svg" width="1280" height="720" viewBox="0 0 1280 720" fill="none">
  <rect width="1280" height="720" rx="44" fill="#070A1B"/>
  <circle cx="138" cy="110" r="170" fill="#0D5B52" fill-opacity=".65"/>
  <circle cx="1165" cy="640" r="190" fill="#063447" fill-opacity=".8"/>
  <rect x="390" y="90" width="500" height="580" rx="26" fill="#0B0E22" stroke="#4AED88" stroke-opacity=".65"/>
  <text x="442" y="148" fill="#4AED88" font-family="Segoe UI, Arial, sans-serif" font-size="32" font-weight="700">SyncDev</text>
  <rect x="765" y="121" width="78" height="30" rx="15" fill="#4AED88" fill-opacity=".13"/>
  <circle cx="784" cy="136" r="5" fill="#4AED88"/>
  <text x="797" y="141" fill="#4AED88" font-family="Segoe UI, Arial, sans-serif" font-size="12" font-weight="700">Live</text>
  <text x="488" y="217" fill="white" font-family="Segoe UI, Arial, sans-serif" font-size="27" font-weight="700">Join a coding room</text>
  <text x="494" y="248" fill="#8E93AA" font-family="Segoe UI, Arial, sans-serif" font-size="14">Collaborate in real time with your team.</text>
  <text x="436" y="300" fill="#DDE2F2" font-family="Segoe UI, Arial, sans-serif" font-size="12" font-weight="700">ROOM ID</text>
  <rect x="436" y="315" width="408" height="54" rx="12" fill="#0D1126" stroke="#343A55"/>
  <text x="456" y="348" fill="#777D97" font-family="Segoe UI, Arial, sans-serif" font-size="14">Paste your invitation ID</text>
  <text x="436" y="410" fill="#DDE2F2" font-family="Segoe UI, Arial, sans-serif" font-size="12" font-weight="700">DISPLAY NAME</text>
  <rect x="436" y="425" width="408" height="54" rx="12" fill="#0D1126" stroke="#343A55"/>
  <text x="456" y="458" fill="#777D97" font-family="Segoe UI, Arial, sans-serif" font-size="14">How should we call you?</text>
  <rect x="436" y="510" width="408" height="54" rx="12" fill="#55DB98"/>
  <text x="596" y="544" fill="#07131A" font-family="Segoe UI, Arial, sans-serif" font-size="15" font-weight="800">Join room</text>
  <text x="623" y="588" fill="#848AA0" font-family="Segoe UI, Arial, sans-serif" font-size="11">OR</text>
  <rect x="436" y="604" width="408" height="1" fill="#293149"/>
  <rect x="436" y="617" width="408" height="38" rx="11" fill="#0D1126" stroke="#4AED88" stroke-opacity=".7"/>
  <text x="574" y="641" fill="#4AED88" font-family="Segoe UI, Arial, sans-serif" font-size="13" font-weight="700">Create a new room</text>
  <text x="82" y="686" fill="#A7F3D0" font-family="Segoe UI, Arial, sans-serif" font-size="17" font-weight="700">Create a UUID room. Share the ID. Start coding.</text>
</svg>
